<svg width="100%" height="100%" viewBox="0 0 1261 361" version="1.1" xmlns="http://www.w3.org/2000/svg" xmlns:xlink="http://www.w3.org/1999/xlink" xml:space="preserve" xmlns:serif="http://www.serif.com/" style="fill-rule:evenodd;clip-rule:evenodd;stroke-linejoin:round;stroke-miterlimit:2;">
    <g transform="matrix(1,0,0,1,-203.426,-1855.66)">
        <g id="tadm" transform="matrix(2.24478,0,0,2.24478,-3574.85,-1780.04)">
            <g id="m" transform="matrix(1,0,0,1,1127.12,182.725)">
                <path d="M936.203,1595.67L969.848,1595.67L969.848,1529.8C969.848,1529.8 970.435,1512.44 988.852,1512.44C1007.27,1512.44 1009.73,1529.76 1009.73,1529.76L1009.73,1595.5L1044.03,1595.5L1044.03,1530.22C1044.03,1530.22 1044.84,1512.62 1063.3,1512.62C1081.75,1512.62 1084.32,1530.97 1084.32,1530.97L1084.32,1595.35L1117.74,1595.35L1117.74,1532.56C1117.74,1532.56 1117.85,1482.4 1065.14,1482.05C1035.57,1481.85 1026.86,1502.35 1026.81,1502.48C1026.77,1502.61 1013.6,1481.14 989.808,1481.2C961.028,1481.27 936.611,1499.05 936.207,1529.83C935.799,1561 936.207,1572.61 936.207,1572.61L936.203,1595.67Z"/>
            </g>
            <g id="d" transform="matrix(0.32794,0,0,0.32794,1633.53,1409.61)">
                <path d="M1148.14,794.26L1148.14,640.395L1250.63,640.395L1251.15,973.867C1251.15,973.867 1250.75,994.236 1242.76,1015.64C1210.26,1102.79 1143.76,1124.4 1107.2,1127.89C1059.87,1132.41 1006.31,1134.26 947.459,1086.61C888.157,1038.59 888.552,969.097 888.53,957.207C888.487,933.725 889.175,929.821 890.063,920.513C890.952,911.205 899.603,869.211 930.2,833.655C958.025,801.321 977.48,788.634 1023.97,777.834C1064.05,768.522 1106.17,779.444 1114.29,781.726C1122.4,784.007 1148.14,794.26 1148.14,794.26ZM1084.99,866.856C1072.35,864.337 1059.3,864.755 1046.85,868.077C1021.95,874.656 982.4,894.602 983.504,954.682C985.201,1046.93 1071.13,1042.26 1071.13,1042.26C1071.13,1042.26 1155.86,1044.79 1156.31,957.535C1156.65,890.853 1111.37,872.115 1084.99,866.856Z"/>
            </g>
            <g id="a" transform="matrix(1,0,0,1,235.894,0)">
                <g transform="matrix(0.356416,0,0,0.328768,990.358,1408.68)">
                    <g id="o">
                        <path d="M1729.77,778.499C1764.06,778.499 1782.23,782.937 1803.62,790.376C1816.9,794.994 1840.52,806.312 1860.26,826.359C1894.33,860.966 1914.24,908.217 1914.24,956.295C1914.24,1004.37 1895.1,1048.11 1862.2,1081C1829.3,1113.9 1778.75,1129.85 1734.18,1129.85C1689.62,1129.85 1638.85,1116.59 1603.35,1081.09C1567.85,1045.59 1551.49,997.3 1551.49,949.598C1551.49,901.899 1576.46,849.886 1600.13,826.218C1623.8,802.546 1662.16,778.499 1729.77,778.499ZM1731.81,868.101C1699.44,868.101 1647.26,885.704 1647.26,952.336C1647.26,976.079 1652.51,1001.33 1669.5,1018.99C1686.49,1036.66 1712.58,1043 1733.91,1043C1755.25,1043 1779.44,1035.05 1795.19,1018.68C1810.94,1002.31 1818.47,978.115 1818.47,954.184C1818.47,939.824 1813.24,911.707 1793.47,891.51C1780.29,878.049 1760.66,868.101 1731.81,868.101Z"/>
                    </g>
                </g>
                <path d="M1672.54,1723.44L1672.73,1779.76L1642.18,1779.97L1642.27,1772.07L1672.54,1723.44Z"/>
            </g>
            <g id="t" transform="matrix(1.1237,0,0,1.1237,1056.23,-14.3863)">
                <path d="M592.002,1517.68L623.86,1517.68L623.86,1486.36L591.971,1486.36L591.971,1455.57L557.924,1455.57L557.924,1539.77C557.924,1539.77 554.256,1597.01 630.25,1597.01C630.315,1596.9 630.25,1565.09 630.25,1565.09C630.25,1565.09 591.955,1571.82 591.955,1539.82C592,1517.68 592.002,1517.68 592.002,1517.68Z"/>
            </g>
        </g>
    </g>
</svg>
